<svg width="65" height="35" viewBox="0 0 65 35" fill="none" xmlns="http://www.w3.org/2000/svg">
<path d="M47.5 0H17.5C7.83502 0 0 7.83502 0 17.5C0 27.165 7.83502 35 17.5 35H47.5C57.165 35 65 27.165 65 17.5C65 7.83502 57.165 0 47.5 0Z" fill="#58A000"/>
<path d="M54.4627 13.5483V15.4905H48.9552V17.6582H51.4021C54.1767 17.6582 55.6285 19.5166 55.6285 21.3525C55.6285 23.2075 54.1767 25.0853 51.4021 25.0853H46.9525V13.5483H54.4627ZM51.4021 19.6004H48.9552V23.1434H51.4021C52.1244 23.1434 52.7154 22.9421 53.1117 22.5609C53.4431 22.242 53.6258 21.8127 53.6258 21.3525C53.6258 20.5441 53.0432 19.6004 51.4021 19.6004ZM54.4629 10.1977V12.3H46.9528V10.1977H54.4629Z" fill="white"/>
<path fill-rule="evenodd" clip-rule="evenodd" d="M33.3717 20.2672L31.9881 19.4387L37.4825 10.8107L38.8661 11.6389L33.3717 20.2672Z" fill="white"/>
<path d="M38.3728 17.3683C37.8697 17.3683 37.4603 17.7652 37.4603 18.253V18.7838C37.4603 19.2717 37.8697 19.6685 38.3728 19.6685H38.6275C39.1303 19.6685 39.54 19.2717 39.54 18.7838V18.253C39.54 17.7652 39.1303 17.3683 38.6275 17.3683H38.3728ZM38.6275 21.0319H38.3728C37.0946 21.0319 36.0546 20.0232 36.0546 18.7838V18.253C36.0546 17.0137 37.0946 16.0053 38.3728 16.0053H38.6275C39.9057 16.0053 40.9457 17.0137 40.9457 18.253V18.7838C40.9457 20.0232 39.9057 21.0319 38.6275 21.0319Z" fill="white"/>
<path d="M32.2269 11.409C31.7238 11.409 31.3144 11.8062 31.3144 12.2937V12.8248C31.3144 13.3123 31.7238 13.7096 32.2269 13.7096H32.4813C32.9844 13.7096 33.3937 13.3123 33.3937 12.8248V12.2937C33.3937 11.8062 32.9844 11.409 32.4813 11.409H32.2269ZM32.4813 15.0726H32.2269C30.9483 15.0726 29.9083 14.0642 29.9083 12.8248V12.2937C29.9083 11.0543 30.9483 10.0459 32.2269 10.0459H32.4813C33.7595 10.0459 34.7998 11.0543 34.7998 12.2937V12.8248C34.7998 14.0642 33.7595 15.0726 32.4813 15.0726Z" fill="white"/>
<path d="M15.1523 25.2067H12.6805V13.2666L9.03413 14.5127V12.4189L14.8357 10.2842H15.1523V25.2067ZM27.8056 18.9456C27.8056 21.0837 27.4055 22.6958 26.6054 23.7819C25.8053 24.868 24.5882 25.411 22.9539 25.411C21.3469 25.411 20.1366 24.8816 19.3229 23.8228C18.5092 22.7639 18.0921 21.1961 18.0717 19.1192V16.5453C18.0717 14.4072 18.4717 12.8036 19.2718 11.7345C20.0719 10.6655 21.2925 10.1309 22.9335 10.1309C24.5609 10.1309 25.7747 10.6519 26.5748 11.6937C27.3749 12.7355 27.7851 14.2948 27.8056 16.3717V18.9456ZM25.3236 16.1674C25.3236 14.7715 25.1329 13.7484 24.7516 13.0981C24.3703 12.4478 23.7642 12.1227 22.9335 12.1227C22.1232 12.1227 21.5274 12.4308 21.1461 13.047C20.7647 13.6633 20.5639 14.6251 20.5434 15.9325V19.3031C20.5434 20.6922 20.7375 21.7272 21.1256 22.4081C21.5138 23.0891 22.1232 23.4295 22.9539 23.4295C23.7506 23.4295 24.3396 23.1146 24.7209 22.4847C25.1023 21.8549 25.3031 20.8692 25.3236 19.5278V16.1674Z" fill="white"/>
</svg>
